<svg width="122" height="170" viewBox="0 0 122 170" fill="none" xmlns="http://www.w3.org/2000/svg">
<path d="M61.9841 83.8214L60.3055 85.0875L59.7969 86.9615L61.4812 85.6896L61.9841 83.8214Z" stroke="white" stroke-opacity="0.3" stroke-width="2.66444" stroke-miterlimit="10"/>
<path d="M59.2699 86.6916L61.4538 85.8329L62.5171 84.0858L60.3332 84.9445L59.2699 86.6916Z" stroke="white" stroke-opacity="0.3" stroke-width="2.66444" stroke-miterlimit="10"/>
<path d="M63.0174 84.4874L60.4078 84.8065L58.7655 86.2898L61.3809 85.9707L63.0174 84.4874Z" stroke="white" stroke-opacity="0.3" stroke-width="2.66444" stroke-miterlimit="10"/>
<path d="M58.3281 85.7673L61.2662 86.0917L63.4598 85.0098L60.5217 84.6853L58.3281 85.7673Z" stroke="white" stroke-opacity="0.3" stroke-width="2.66444" stroke-miterlimit="10"/>
<path d="M63.7936 85.6475L60.682 84.5925L57.9936 85.1353L61.1051 86.1846L63.7936 85.6475Z" stroke="white" stroke-opacity="0.3" stroke-width="2.66444" stroke-miterlimit="10"/>
<path d="M57.7972 84.4163L60.9038 86.2376L63.9844 86.3607L60.8835 84.545L57.7972 84.4163Z" stroke="white" stroke-opacity="0.3" stroke-width="2.66444" stroke-miterlimit="10"/>
<path d="M63.9966 87.1211L61.1141 84.5375L57.7907 83.656L60.6732 86.2395L63.9966 87.1211Z" stroke="white" stroke-opacity="0.3" stroke-width="2.66444" stroke-miterlimit="10"/>
<path d="M57.9862 82.8884L60.4192 86.1845L63.8016 87.8889L61.3686 84.5928L57.9862 82.8884Z" stroke="white" stroke-opacity="0.3" stroke-width="2.66444" stroke-miterlimit="10"/>
<path d="M63.3747 88.6072L61.6286 84.7107L58.4121 82.1702L60.1583 86.0724L63.3747 88.6072Z" stroke="white" stroke-opacity="0.3" stroke-width="2.66444" stroke-miterlimit="10"/>
<path d="M59.0703 81.5586L59.9033 85.8914L62.7112 89.2186L61.8782 84.8915L59.0703 81.5586Z" stroke="white" stroke-opacity="0.3" stroke-width="2.66444" stroke-miterlimit="10"/>
<path d="M61.8216 89.6719L62.1054 85.1355L59.9605 81.1053L59.6768 85.6474L61.8216 89.6719Z" stroke="white" stroke-opacity="0.3" stroke-width="2.66444" stroke-miterlimit="10"/>
<path d="M61.0538 80.879L59.501 85.346L60.7279 89.9041L62.2865 85.4314L61.0538 80.879Z" stroke="white" stroke-opacity="0.3" stroke-width="2.66444" stroke-miterlimit="10"/>
<path d="M59.476 89.863L62.3986 85.7791L62.3106 80.9142L59.3822 85.0038L59.476 89.863Z" stroke="white" stroke-opacity="0.3" stroke-width="2.66444" stroke-miterlimit="10"/>
<path d="M63.669 81.2628L59.356 84.6322L58.1179 89.5197L62.431 86.1504L63.669 81.2628Z" stroke="white" stroke-opacity="0.3" stroke-width="2.66444" stroke-miterlimit="10"/>
<path d="M56.7339 88.8338L62.3595 86.5284L65.0534 81.943L59.4278 84.2484L56.7339 88.8338Z" stroke="white" stroke-opacity="0.3" stroke-width="2.66444" stroke-miterlimit="10"/>
<path d="M66.3712 82.967L59.6032 83.8868L55.4099 87.8102L62.1779 86.8905L66.3712 82.967Z" stroke="white" stroke-opacity="0.3" stroke-width="2.66444" stroke-miterlimit="10"/>
<path d="M54.2512 86.4588L61.8814 87.2075L67.5368 84.3181L59.9009 83.5695L54.2512 86.4588Z" stroke="white" stroke-opacity="0.3" stroke-width="2.66444" stroke-miterlimit="10"/>
<path d="M68.4267 85.9521L60.3132 83.326L53.3598 84.825L61.4732 87.4511L68.4267 85.9521Z" stroke="white" stroke-opacity="0.3" stroke-width="2.66444" stroke-miterlimit="10"/>
<path d="M52.8373 82.965L60.9564 87.5983L68.9511 87.812L60.832 83.1844L52.8373 82.965Z" stroke="white" stroke-opacity="0.3" stroke-width="2.66444" stroke-miterlimit="10"/>
<path d="M69.0085 89.8013L61.4316 83.1683L52.7742 80.9816L60.3569 87.6146L69.0085 89.8013Z" stroke="white" stroke-opacity="0.3" stroke-width="2.66444" stroke-miterlimit="10"/>
<path d="M53.2587 78.9765L59.6982 87.4827L68.5295 91.8064L62.09 83.3002L53.2587 78.9765Z" stroke="white" stroke-opacity="0.3" stroke-width="2.66444" stroke-miterlimit="10"/>
<path d="M67.4494 93.6907L62.7725 83.5919L54.3322 77.0924L59.0091 87.1854L67.4494 93.6907Z" stroke="white" stroke-opacity="0.3" stroke-width="2.66444" stroke-miterlimit="10"/>
<path d="M56.0258 75.4716L58.3484 86.7275L65.7625 95.311L63.4342 84.0551L56.0258 75.4716Z" stroke="white" stroke-opacity="0.3" stroke-width="2.66444" stroke-miterlimit="10"/>
<path d="M63.4717 96.5135L64.0329 84.6791L58.3161 74.2634L57.7549 86.0978L63.4717 96.5135Z" stroke="white" stroke-opacity="0.3" stroke-width="2.66444" stroke-miterlimit="10"/>
<path d="M61.141 73.6225L57.275 85.3243L60.6459 97.1546L64.512 85.4528L61.141 73.6225Z" stroke="white" stroke-opacity="0.3" stroke-width="2.66444" stroke-miterlimit="10"/>
<path d="M57.3881 97.1017L64.814 86.348L64.3937 73.6812L56.9677 84.435L57.3881 97.1017Z" stroke="white" stroke-opacity="0.3" stroke-width="2.66444" stroke-miterlimit="10"/>
<path d="M67.9304 74.5377L56.8783 83.4636L53.8572 96.2451L64.9093 87.3135L67.9304 74.5377Z" stroke="white" stroke-opacity="0.3" stroke-width="2.66444" stroke-miterlimit="10"/>
<path d="M50.2374 94.5145L64.7389 88.3042L71.5494 76.2684L57.0422 82.473L50.2374 94.5145Z" stroke="white" stroke-opacity="0.3" stroke-width="2.66444" stroke-miterlimit="10"/>
<path d="M75.0155 78.8924L57.5014 81.5256L46.7722 91.8907L64.2863 89.2575L75.0155 78.8924Z" stroke="white" stroke-opacity="0.3" stroke-width="2.66444" stroke-miterlimit="10"/>
<path d="M43.7086 88.4109L63.5264 90.0933L78.073 82.366L58.2552 80.6837L43.7086 88.4109Z" stroke="white" stroke-opacity="0.3" stroke-width="2.66444" stroke-miterlimit="10"/>
<path d="M80.4507 86.6014L59.3107 80.0346L41.3307 84.176L62.4708 90.7485L80.4507 86.6014Z" stroke="white" stroke-opacity="0.3" stroke-width="2.66444" stroke-miterlimit="10"/>
<path d="M39.9054 79.3496L61.1422 91.1367L81.8822 91.4274L60.6454 79.6403L39.9054 79.3496Z" stroke="white" stroke-opacity="0.3" stroke-width="2.66444" stroke-miterlimit="10"/>
<path d="M82.1111 96.6055L62.202 79.5764L39.6769 74.1771L59.5859 91.2005L82.1111 96.6055Z" stroke="white" stroke-opacity="0.3" stroke-width="2.66444" stroke-miterlimit="10"/>
<path d="M40.8489 68.936L57.8705 90.8829L80.939 101.841L63.9174 79.8941L40.8489 68.936Z" stroke="white" stroke-opacity="0.3" stroke-width="2.66444" stroke-miterlimit="10"/>
<path d="M78.2189 106.792L65.6998 80.64L43.5633 63.9908L56.0824 90.1372L78.2189 106.792Z" stroke="white" stroke-opacity="0.3" stroke-width="2.66444" stroke-miterlimit="10"/>
<path d="M47.886 59.707L54.3479 88.9564L73.895 111.07L67.439 81.8262L47.886 59.707Z" stroke="white" stroke-opacity="0.3" stroke-width="2.66444" stroke-miterlimit="10"/>
<path d="M68.0063 114.292L69.0091 83.4372L53.7755 56.4911L52.7784 87.3458L68.0063 114.292Z" stroke="white" stroke-opacity="0.3" stroke-width="2.66444" stroke-miterlimit="10"/>
<path d="M61.0819 54.7206L51.5093 85.3438L60.7046 116.057L70.2771 85.4335L61.0819 54.7206Z" stroke="white" stroke-opacity="0.3" stroke-width="2.66444" stroke-miterlimit="10"/>
<path d="M52.2576 116.024L71.1045 87.748L69.529 54.7532L50.6764 83.0294L52.2576 116.024Z" stroke="white" stroke-opacity="0.3" stroke-width="2.66444" stroke-miterlimit="10"/>
<path d="M78.7279 56.8659L50.4055 80.51L43.0585 113.911L71.3808 90.2672L78.7279 56.8659Z" stroke="white" stroke-opacity="0.3" stroke-width="2.66444" stroke-miterlimit="10"/>
<path d="M33.609 109.531L70.9828 92.8553L88.1778 61.252L50.8039 77.922L33.609 109.531Z" stroke="white" stroke-opacity="0.3" stroke-width="2.66444" stroke-miterlimit="10"/>
<path d="M97.267 67.968L51.9469 75.4301L24.5138 102.815L69.8396 95.3469L97.267 67.968Z" stroke="white" stroke-opacity="0.3" stroke-width="2.66444" stroke-miterlimit="10"/>
<path d="M16.4496 93.8535L67.9044 97.5603L105.338 76.9237L53.8775 73.217L16.4496 93.8535Z" stroke="white" stroke-opacity="0.3" stroke-width="2.66444" stroke-miterlimit="10"/>
<path d="M111.666 87.8801L56.5902 71.4845L10.1213 82.8973L65.1915 99.2985L111.666 87.8801Z" stroke="white" stroke-opacity="0.3" stroke-width="2.66444" stroke-miterlimit="10"/>
<path d="M6.23032 70.3766L61.7577 100.362L115.551 100.406L60.0294 70.4151L6.23032 70.3766Z" stroke="white" stroke-opacity="0.3" stroke-width="2.66444" stroke-miterlimit="10"/>
<path d="M116.347 113.887L64.0644 70.2002L5.4349 56.8954L57.723 100.583L116.347 113.887Z" stroke="white" stroke-opacity="0.3" stroke-width="2.66444" stroke-miterlimit="10"/>
<path d="M8.27625 43.2071L53.2586 99.807L113.511 127.57L68.5283 70.97L8.27625 43.2071Z" stroke="white" stroke-opacity="0.3" stroke-width="2.66444" stroke-miterlimit="10"/>
<path d="M106.649 140.559L73.1743 72.8472L15.1373 30.2176L48.606 97.9299L106.649 140.559Z" stroke="white" stroke-opacity="0.3" stroke-width="2.66444" stroke-miterlimit="10"/>
<path d="M26.1834 18.9146L44.0552 94.9085L95.6045 151.868L77.7327 75.8743L26.1834 18.9146Z" stroke="white" stroke-opacity="0.3" stroke-width="2.66444" stroke-miterlimit="10"/>
<path d="M80.4531 160.455L81.8595 80.0197L41.3338 10.3276L39.9216 90.7575L80.4531 160.455Z" stroke="white" stroke-opacity="0.3" stroke-width="2.66444" stroke-miterlimit="10"/>
<path d="M60.2023 5.46486L36.5612 85.5938L61.5781 165.312L85.225 85.1889L60.2023 5.46486Z" stroke="white" stroke-opacity="0.3" stroke-width="2.66444" stroke-miterlimit="10"/>
</svg>
