<svg width="62" height="94" viewBox="0 0 62 94" fill="none" xmlns="http://www.w3.org/2000/svg">
<path d="M30.5916 36.2085V72.4169L29.873 71.9848C28.2011 70.9716 25.548 70.4799 21.8172 70.4799C18.6805 70.4799 15.8755 71.061 12.8079 72.3275C4.60006 75.7398 -0.664562 81.6404 0.0677877 86.6023C0.620504 90.3871 4.11644 93.1586 9.24289 93.8887C12.4348 94.3357 17.9896 93.397 21.8034 91.7728C24.567 90.5957 27.9247 88.3457 29.7625 86.4682C31.0061 85.1868 32.3464 83.1752 32.7748 81.9086C33.5072 79.8225 33.4933 80.359 33.4519 58.1422C33.4381 46.8177 33.4657 37.5495 33.5072 37.5495C33.5624 37.5495 35.2068 38.3989 37.1689 39.427C44.6582 43.3608 49.0799 45.7598 50.213 46.5048C50.8625 46.922 51.6086 47.3988 51.8712 47.5627C54.3169 49.0677 56.8733 51.8243 58.0754 54.2531C58.8078 55.7432 59.167 57.0842 59.4019 59.3044C59.6645 61.7034 59.6645 63.3872 59.3881 65.1305C58.8492 68.5428 56.8042 73.8623 55.2427 75.9335C54.9802 76.2762 54.7729 76.5891 54.7729 76.6487C54.7729 76.6934 55.1736 76.7381 55.6435 76.7381H56.5278L57.2878 75.5908C60.4383 70.7928 61.9721 65.8458 61.9997 60.422C62.0135 56.8011 61.5437 54.6256 60.0099 51.4071L59.1808 49.6786L59.4019 49.023C60.1205 46.8624 60.7146 43.0031 60.7146 40.5594C60.7146 35.836 58.7939 30.7996 55.298 26.2996C53.93 24.5413 51.2494 21.7251 49.1767 19.8774C48.2647 19.0728 47.3942 18.283 47.2422 18.134C46.8829 17.7764 42.5164 14.3195 40.0983 12.4718C36.5333 9.745 34.8889 7.495 34.0461 4.14236C33.7421 2.92052 33.4795 1.20695 33.4657 0.476822V0H32.0286H30.5916V36.2085ZM34.3362 17.8211C35.6075 18.3724 40.7477 21.1291 42.6132 22.2615C44.8517 23.6026 47.9054 25.778 49.1905 26.9403C51.7054 29.2201 55.1598 33.4519 56.2791 35.6273C56.9009 36.8194 57.4812 38.6224 57.6747 39.9634C57.8543 41.1555 57.8129 46.9816 57.6332 47.1902C57.578 47.2349 57.3016 46.9965 57.0252 46.624C56.1271 45.4319 53.2115 42.4071 51.5948 40.9618C49.6327 39.2035 47.4632 37.4452 45.0866 35.6869C44.1055 34.9419 42.9033 34.0181 42.4335 33.6009C41.2728 32.6025 38.9238 30.129 38.3296 29.2797C38.0671 28.8923 37.5834 28.2217 37.2518 27.7747C35.4693 25.3161 33.9908 21.74 33.5624 18.8046C33.4519 18.0148 33.3828 17.4337 33.4242 17.4337C33.4381 17.4337 33.8388 17.6125 34.3362 17.8211Z" fill="#4C0095"/>
</svg>
