<svg width="42" height="832" viewBox="0 0 42 832" fill="none" xmlns="http://www.w3.org/2000/svg">
<path d="M26.9252 -0.00512695L12.4914 24.9949H41.3589L26.9252 -0.00512695ZM26.9252 832.005L41.3589 807.005H12.4914L26.9252 832.005ZM24.4252 7.51303V12.5251H29.4252V7.51303H24.4252ZM24.4252 17.5372V22.5493H29.4252V17.5372H24.4252ZM24.4252 27.5615V32.5736H29.4252V27.5615H24.4252ZM24.4252 37.5857V42.5978H29.4252V37.5857H24.4252ZM24.4252 47.6099V52.622H29.4252V47.6099H24.4252ZM24.4252 57.6341V62.6462H29.4252V57.6341H24.4252ZM24.4252 67.6583V72.6704H29.4252V67.6583H24.4252ZM24.4252 77.6825V82.6946H29.4252V77.6825H24.4252ZM24.4252 87.7067V92.7189H29.4252V87.7067H24.4252ZM24.4252 97.731V102.743H29.4252V97.731H24.4252ZM24.4252 107.755V112.767H29.4252V107.755H24.4252ZM24.4252 117.779V122.792H29.4252V117.779H24.4252ZM24.4252 127.804V132.816H29.4252V127.804H24.4252ZM24.4252 137.828V142.84H29.4252V137.828H24.4252ZM24.4252 147.852V152.864H29.4252V147.852H24.4252ZM24.4252 157.876V162.888H29.4252V157.876H24.4252ZM24.4252 167.9V172.913H29.4252V167.9H24.4252ZM24.4252 177.925V182.937H29.4252V177.925H24.4252ZM24.4252 187.949V192.961H29.4252V187.949H24.4252ZM24.4252 197.973V202.985H29.4252V197.973H24.4252ZM24.4252 207.997V213.009H29.4252V207.997H24.4252ZM24.4252 218.021V223.034H29.4252V218.021H24.4252ZM24.4252 228.046V233.058H29.4252V228.046H24.4252ZM24.4252 238.07V243.082H29.4252V238.07H24.4252ZM24.4252 248.094V253.106H29.4252V248.094H24.4252ZM24.4252 258.118V263.13H29.4252V258.118H24.4252ZM24.4252 268.142V273.155H29.4252V268.142H24.4252ZM24.4252 278.167V283.179H29.4252V278.167H24.4252ZM24.4252 288.191V293.203H29.4252V288.191H24.4252ZM24.4252 298.215V303.227H29.4252V298.215H24.4252ZM24.4252 308.239V313.251H29.4252V308.239H24.4252ZM24.4252 318.264V323.276H29.4252V318.264H24.4252ZM24.4252 328.288V333.3H29.4252V328.288H24.4252ZM24.4252 338.312V343.324H29.4252V338.312H24.4252ZM24.4252 348.336V353.348H29.4252V348.336H24.4252ZM24.4252 358.361V363.373H29.4252V358.361H24.4252ZM24.4252 368.385V373.397H29.4252V368.385H24.4252ZM24.4252 378.409V383.421H29.4252V378.409H24.4252ZM24.4252 388.433V393.445H29.4252V388.433H24.4252ZM24.4252 398.457V403.47H29.4252V398.457H24.4252ZM24.4252 408.482V413.494H29.4252V408.482H24.4252ZM24.4252 418.506V423.518H29.4252V418.506H24.4252ZM24.4252 428.53V433.542H29.4252V428.53H24.4252ZM24.4252 438.554V443.566H29.4252V438.554H24.4252ZM24.4252 448.579V453.591H29.4252V448.579H24.4252ZM24.4252 458.603V463.615H29.4252V458.603H24.4252ZM24.4252 468.627V473.639H29.4252V468.627H24.4252ZM24.4252 478.651V483.663H29.4252V478.651H24.4252ZM24.4252 488.676V493.688H29.4252V488.676H24.4252ZM24.4252 498.7V503.712H29.4252V498.7H24.4252ZM24.4252 508.724V513.736H29.4252V508.724H24.4252ZM24.4252 518.748V523.76H29.4252V518.748H24.4252ZM24.4252 528.772V533.784H29.4252V528.772H24.4252ZM24.4252 538.797V543.809H29.4252V538.797H24.4252ZM24.4252 548.821V553.833H29.4252V548.821H24.4252ZM24.4252 558.845V563.857H29.4252V558.845H24.4252ZM24.4252 568.869V573.881H29.4252V568.869H24.4252ZM24.4252 578.893V583.905H29.4252V578.893H24.4252ZM24.4252 588.917V593.929H29.4252V588.917H24.4252ZM24.4252 598.941V603.954H29.4252V598.941H24.4252ZM24.4252 608.966V613.978H29.4252V608.966H24.4252ZM24.4252 618.99V624.002H29.4252V618.99H24.4252ZM24.4252 629.014V634.026H29.4252V629.014H24.4252ZM24.4252 639.038V644.05H29.4252V639.038H24.4252ZM24.4252 649.062V654.074H29.4252V649.062H24.4252ZM24.4252 659.087V664.099H29.4252V659.087H24.4252ZM24.4252 669.111V674.123H29.4252V669.111H24.4252ZM24.4252 679.135V684.147H29.4252V679.135H24.4252ZM24.4252 689.159V694.171H29.4252V689.159H24.4252ZM24.4252 699.183V704.195H29.4252V699.183H24.4252ZM24.4252 709.207V714.219H29.4252V709.207H24.4252ZM24.4252 719.232V724.244H29.4252V719.232H24.4252ZM24.4252 729.256V734.268H29.4252V729.256H24.4252ZM24.4252 739.28V744.292H29.4252V739.28H24.4252ZM24.4252 749.304V754.316H29.4252V749.304H24.4252ZM24.4252 759.328V764.34H29.4252V759.328H24.4252ZM24.4252 769.352V774.365H29.4252V769.352H24.4252ZM24.4252 779.377V784.389H29.4252V779.377H24.4252ZM24.4252 789.401V794.413H29.4252V789.401H24.4252ZM24.4252 799.425V804.437H29.4252V799.425H24.4252ZM24.4252 809.449V814.461H29.4252V809.449H24.4252ZM24.4252 819.473V824.485H29.4252V819.473H24.4252Z" fill="white"/>
<path d="M25.5 79.5L0.5 65.0662V93.9338L25.5 79.5Z" fill="white"/>
</svg>
